<?xml version="1.0" encoding="iso-8859-1"?>
<!-- Generator: Adobe Illustrator 19.0.0, SVG Export Plug-In . SVG Version: 6.00 Build 0)  -->
<svg version="1.1" id="Layer_1" xmlns="http://www.w3.org/2000/svg" xmlns:xlink="http://www.w3.org/1999/xlink" x="0px" y="0px"
	 viewBox="0 0 512 512" style="enable-background:new 0 0 512 512;" xml:space="preserve">
<path style="fill:#8E604C;" d="M350.282,47.645l-47.307,49.692c-7.002,7.355-15.06,13.629-23.91,18.612l-76.299,42.972
	l-35.319-50.256l66.279-57.23c7.687-6.637,16.319-12.094,25.612-16.191l62.78-27.675c10.894-4.802,23.663-1.247,30.509,8.493l0,0
	C359.472,25.805,358.49,39.023,350.282,47.645z"/>
<path style="fill:#7F5141;" d="M345.379,52.785l-42.414,44.553c-7.002,7.355-15.06,13.629-23.909,18.612l-76.299,42.972
	l-35.319-50.256l21.976-18.975h41.672l49.392-23.149c9.196-4.311,18.982-7.228,29.037-8.657L345.379,52.785z"/>
<path style="fill:#C18A6F;" d="M323.672,45.124l-23.271,22.777c-3.445,3.372-7.268,6.429-11.346,9.072L266.23,91.769
	c-7,4.537-14.878,4.583-18.225,0.106c-3.347-4.477-1.071-12.021,5.263-17.449l20.653-17.701c3.69-3.161,7.705-5.963,11.914-8.312
	l28.436-15.867c4.934-2.753,10.131-2.535,12.415,0.522C328.972,36.125,327.71,41.171,323.672,45.124z"/>
<path style="fill:#B57961;" d="M310.822,57.699l-10.423,10.202c-3.445,3.372-7.268,6.429-11.346,9.072l-22.825,14.796
	c-6.999,4.537-14.879,4.583-18.225,0.106c-1.947-2.606-1.979-6.249-0.428-9.909l32.909-15.424
	c9.196-4.311,18.982-7.228,29.038-8.657L310.822,57.699z"/>
<path style="fill:#966950;" d="M506.553,462.979v21.787c0,12.033-9.754,21.787-21.787,21.787H299.574l-81.669-40.835
	c-70.122-35.061-114.416-106.73-114.416-185.127V136.17L299.574,256l0,0C413.886,256,506.553,348.668,506.553,462.979z"/>
<path style="fill:#7F513D;" d="M506.553,462.979v21.787c0,12.033-9.754,21.787-21.787,21.787H375.83h-10.894h-119.83
	c-12.033,0-21.787-9.754-21.787-21.787l0,0c0-24.065,19.509-43.574,43.574-43.574h89.614c5.113,0,9.497-3.567,10.633-8.551
	c8.836-38.767,43.5-67.704,84.944-67.704h29.811C497.623,394.119,506.553,427.505,506.553,462.979z"/>
<path style="fill:#966950;" d="M506.553,473.872v10.894c0,12.033-9.754,21.787-21.787,21.787h-10.894
	c-18.05,0-32.681-14.632-32.681-32.681l0,0c0-18.049,14.631-32.681,32.681-32.681C491.922,441.191,506.553,455.824,506.553,473.872z
	"/>
<g>
	<path style="fill:#A57358;" d="M484.766,451.986c0,0.033,0,0.066,0,0.099v10.894c0,12.033-9.754,21.787-21.787,21.787h-10.894
		c-0.033,0-0.066,0-0.099,0c-5.91-0.019-10.777-4.886-10.794-10.794c0-0.033,0-0.066,0-0.099c0-18.049,14.631-32.681,32.681-32.681
		c0.033,0,0.066,0,0.099,0C479.88,441.21,484.749,446.077,484.766,451.986z"/>
	<path style="fill:#A57358;" d="M460.042,332.255C422.088,285.722,364.305,256,299.574,256l0,0L256,229.372v91.99v10.894v28.927
		c0,26.349,21.448,47.665,47.797,47.505c2.76-0.017,5.488-0.033,8.135-0.047c16.148-0.088,30.991-8.468,39.814-21.992
		c6.829-10.468,15.29-19.892,25.101-27.819c21.209-17.136,47.93-26.574,75.238-26.574H460.042z"/>
</g>
<path style="fill:#7F513D;" d="M223.319,209.399l-119.83-73.229v144.421c0,27.388,5.42,53.946,15.443,78.418L86.06,441.191H49.021
	c-24.065,0-43.574,19.509-43.574,43.574l0,0c0,12.033,9.754,21.787,21.787,21.787h32.681h43.236h0.339v-0.013
	c13.227-0.137,25.084-8.229,30.004-20.531l45.69-114.225c1.655-4.136,5.66-6.848,10.115-6.848h1.34
	c18.05,0,32.681-14.632,32.681-32.681V209.399z"/>
<path style="fill:#845441;" d="M244.531,222.363c-4.95,43.389-41.873,77.212-86.565,77.212h-53.602
	c-0.576-6.273-0.875-12.605-0.875-18.983V136.17L244.531,222.363z"/>
<path style="fill:#774635;" d="M223.319,209.399v60.573c-15.977,18.131-39.341,29.602-65.353,29.602h-53.593
	c-0.047-0.512-0.883-17.339-0.883-18.983V136.17L223.319,209.399z"/>
<path style="fill:#A57A63;" d="M393.721,108.226l-58.987,35.039c-8.732,5.188-18.187,9.046-28.054,11.449l-75.046,18.282
	c-4.88,1.19-8.315,5.561-8.315,10.584v28.845c0,36.098-29.264,65.362-65.362,65.362H70.809c-36.098,0-65.362-29.264-65.362-65.362
	v-16.895c0-3.111,1.33-6.074,3.656-8.142l69.621-61.887c15.954-14.18,36.556-22.013,57.9-22.013h94.473l49.392-23.149
	c9.196-4.311,18.982-7.228,29.038-8.657l67.926-9.657c11.787-1.675,23.118,5.201,27.073,16.431l0,0
	C408.478,89.686,403.957,102.145,393.721,108.226z"/>
<path style="fill:#D49877;" d="M365.629,100.478l-29.01,14.79c-4.294,2.19-8.857,3.965-13.538,5.27l-26.201,7.305
	c-8.035,2.24-15.568-0.069-17.424-5.341c-1.856-5.273,2.567-11.792,10.232-15.082l24.996-10.726
	c4.465-1.916,9.134-3.391,13.852-4.376l31.876-6.653c5.531-1.155,10.425,0.606,11.693,4.206
	C373.374,93.473,370.663,97.912,365.629,100.478z"/>
<path style="fill:#CEA391;" d="M38.128,161.589v39.943c0,12.033-9.754,21.787-21.787,21.787h-6.173c-2.207,0-4.093-1.646-4.332-3.84
	c-0.254-2.317-0.388-4.669-0.388-7.054v-16.895c0-3.111,1.33-6.074,3.656-8.142L38.128,161.589z"/>
<path style="fill:#DDB9A4;" d="M27.234,176.124v10.884c0,9.532-6.121,17.635-14.648,20.59c-3.499,1.214-7.14-1.479-7.14-5.182
	v-6.885c0-3.111,1.33-6.075,3.656-8.142l14.505-12.893C25.013,173.247,27.234,174.243,27.234,176.124z"/>
<g>
	<path style="fill:#B58772;" d="M130.723,190.638c-15.041,0-27.234-12.193-27.234-27.234c0-15.041,12.193-27.234,27.234-27.234
		s27.234,12.193,27.234,27.234C157.957,178.445,145.764,190.638,130.723,190.638z"/>
	<path style="fill:#B58772;" d="M182.898,201.617c-1.156-0.106-2.316,0.18-3.307,0.783l-51.418,31.319
		c-1.962,1.195-2.953,3.492-2.51,5.745c1.854,9.425,10.162,16.534,20.13,16.534h23.057c18.05,0,32.681-14.632,32.681-32.681v-1.271
		C201.532,211.353,193.346,202.568,182.898,201.617z"/>
</g>
<g>
	<path style="fill:#8E604C;" d="M43.574,247.83c0,1.504-1.219,2.723-2.723,2.723s-2.723-1.219-2.723-2.723
		c0-1.504,1.219-2.723,2.723-2.723S43.574,246.325,43.574,247.83z"/>
	<path style="fill:#8E604C;" d="M29.957,234.213c-1.504,0-2.723,1.219-2.723,2.723c0,1.504,1.219,2.723,2.723,2.723
		c1.504,0,2.723-1.219,2.723-2.723C32.681,235.432,31.462,234.213,29.957,234.213z"/>
	<path style="fill:#8E604C;" d="M40.851,223.319c-1.504,0-2.723,1.219-2.723,2.723c0,1.504,1.219,2.723,2.723,2.723
		s2.723-1.219,2.723-2.723C43.574,224.538,42.355,223.319,40.851,223.319z"/>
	<path style="fill:#8E604C;" d="M51.745,234.213c-1.504,0-2.723,1.219-2.723,2.723c0,1.504,1.219,2.723,2.723,2.723
		s2.723-1.219,2.723-2.723C54.468,235.432,53.249,234.213,51.745,234.213z"/>
</g>
<path style="fill:#492E22;" d="M141.617,163.404c0,6.017-4.877,10.894-10.894,10.894c-6.017,0-10.894-4.877-10.894-10.894
	s4.877-10.894,10.894-10.894C136.74,152.511,141.617,157.388,141.617,163.404z"/>
<path style="fill:#E9D2C2;" d="M141.617,157.957c0,3.008-2.439,5.447-5.447,5.447c-3.008,0-5.447-2.439-5.447-5.447
	c0-3.008,2.439-5.447,5.447-5.447C139.178,152.511,141.617,154.95,141.617,157.957z"/>
<path d="M512,462.97v21.787c0,15.017-12.217,27.234-27.234,27.234h-239.66c-15.017,0-27.234-12.217-27.234-27.234
	c0-4.211,0.534-8.302,1.538-12.205l-3.942-1.972c-20.166-10.083-38.417-23.161-54.362-38.941l-22.554,56.385
	c-5.705,14.265-19.258,23.628-34.6,23.947c-0.153,0.013-0.306,0.02-0.462,0.02H27.234C12.217,511.991,0,499.774,0,484.757
	c0-27.03,21.991-49.021,49.021-49.021h33.351l30.681-76.706c-9.636-24.23-14.677-49.706-14.995-75.804H70.809
	C31.765,283.225,0,251.461,0,212.417v-16.896c0-4.662,1.999-9.115,5.485-12.213l69.62-61.887
	c16.969-15.082,38.816-23.389,61.518-23.389h34.792l58.75-50.728c8.103-6.997,17.179-12.734,26.976-17.052l62.78-27.674
	c13.224-5.827,28.852-1.478,37.161,10.345c8.31,11.823,7.108,28.002-2.856,38.469l-9.276,9.743l31.732-4.512
	c14.323-2.034,28.177,6.384,32.977,20.014c4.8,13.631-0.733,28.881-13.157,36.262l-58.987,35.039
	c-9.203,5.467-19.143,9.524-29.546,12.058l-75.047,18.282c-2.448,0.596-4.157,2.772-4.157,5.291v22.763l72.35,44.215
	C417.54,251.383,512,346.353,512,462.97z M188.085,98.034h41.798l12.176-5.706c-2.746-6.707,0.198-15.646,7.665-22.047
	l20.654-17.701c3.969-3.4,8.276-6.405,12.804-8.932l28.436-15.867c7.449-4.155,15.438-3.327,19.433,2.019
	c3.995,5.345,2.527,13.243-3.568,19.209l-7.959,7.789c-2.15,2.105-5.598,2.068-7.702-0.083c-2.105-2.15-2.067-5.598,0.083-7.702
	l7.959-7.789c2.477-2.426,2.642-4.575,2.46-4.905c-0.263-0.263-2.37-0.711-5.397,0.976L288.49,53.161
	c-3.897,2.174-7.606,4.762-11.023,7.692l-20.654,17.701c-3.823,3.276-5.208,7.068-4.825,9.12L278.175,75.4
	c9.691-4.543,19.981-7.61,30.582-9.118l18.832-2.678c0.099-0.122,0.204-0.243,0.314-0.358l18.434-19.363
	c6.397-6.719,7.167-17.105,1.833-24.695c-5.333-7.59-15.365-10.384-23.855-6.641l-62.78,27.674
	c-8.806,3.881-16.966,9.04-24.25,15.328L188.085,98.034z M10.894,202.411c6.52-2.304,10.894-8.486,10.894-15.413v-3.606
	l-9.065,8.058c-1.162,1.033-1.829,2.516-1.829,4.07v6.885C10.894,202.409,10.894,202.409,10.894,202.411z M157.957,272.332
	c33.037,0,59.915-26.878,59.915-59.915v-28.845c0-7.558,5.129-14.087,12.472-15.875l75.047-18.282
	c9.351-2.278,18.287-5.925,26.561-10.84l58.987-35.039c7.975-4.738,11.528-14.528,8.447-23.276
	c-3.082-8.749-11.984-14.152-21.17-12.848l-67.926,9.657c-9.531,1.355-18.781,4.112-27.492,8.196l-49.392,23.149
	c-0.723,0.34-1.513,0.515-2.312,0.515h-94.473c-20.031,0-39.309,7.329-54.281,20.637l-49.966,44.415
	c0.2,0.683,0.305,1.401,0.305,2.134v10.883c0,11.597-7.358,21.941-18.31,25.737c-1.129,0.391-2.302,0.585-3.472,0.588
	c0.487,32.621,27.174,59.009,59.909,59.009H157.957z M447.213,501.098c-7.073-6.925-11.469-16.576-11.469-27.234
	c0-21.024,17.104-38.128,38.128-38.128h0.099c0.024,0,0.048,0,0.071,0c10.255,0.045,19.567,4.159,26.401,10.809
	c-8.383-103.474-95.271-185.107-200.868-185.107c-1.002,0-1.985-0.277-2.84-0.798l-68.264-41.718
	c-3.294,36.008-33.661,64.304-70.513,64.304h-49.004c0.326,25.302,5.33,49.99,14.885,73.422c0.648,1.348,0.728,2.931,0.151,4.375
	l-32.873,82.183c-0.828,2.068-2.83,3.425-5.058,3.425H49.021c-21.024,0-38.128,17.104-38.128,38.128c0,9.01,7.33,16.34,16.34,16.34
	h75.882c0.105-0.008,0.21-0.012,0.317-0.013c11.079-0.114,20.893-6.83,25.003-17.106l25.599-63.998
	c0.045-0.124,0.094-0.247,0.148-0.368l19.944-49.861c2.496-6.24,8.451-10.272,15.173-10.272h1.339
	c15.017,0,27.234-12.217,27.234-27.234v-41.854c0-3.009,2.438-5.447,5.447-5.447c3.009,0,5.447,2.438,5.447,5.447v41.854
	c0,21.024-17.104,38.128-38.128,38.128h-1.339c-2.241,0-4.226,1.343-5.058,3.424l-18.724,46.809
	c15.88,16.449,34.306,29.974,54.822,40.232l2.973,1.486c8.155-15.777,24.629-26.588,43.581-26.588h89.615
	c2.555,0,4.743-1.775,5.323-4.315c4.586-20.121,15.997-38.379,32.132-51.416c16.38-13.235,37.022-20.525,58.122-20.525
	c3.009,0,5.447,2.438,5.447,5.447c0,3.009-2.438,5.447-5.447,5.447c-38.37,0-71.116,26.099-79.633,63.468
	c-1.716,7.529-8.273,12.787-15.944,12.787h-89.614c-21.024,0-38.128,17.104-38.128,38.128c0,9.01,7.33,16.34,16.34,16.34h54.468
	H447.213z M501.106,473.864c0-8.891-4.282-16.801-10.894-21.774v10.881c0,9.691-5.215,18.728-13.61,23.586
	c-2.604,1.505-5.936,0.615-7.443-1.987c-1.507-2.603-0.617-5.936,1.987-7.443c5.04-2.916,8.172-8.34,8.172-14.156v-10.894
	c-0.009-2.969-2.443-5.416-5.326-5.447c-0.04,0-0.081,0-0.121,0c-15.017,0-27.234,12.217-27.234,27.234s12.217,27.234,27.234,27.234
	h10.894c9.01,0,16.34-7.33,16.34-16.34L501.106,473.864L501.106,473.864z M274.318,124.305c-2.83-8.036,2.855-17.45,13.223-21.898
	l24.996-10.726c4.799-2.061,9.807-3.643,14.887-4.703l31.876-6.652c8.345-1.742,15.727,1.435,17.944,7.728
	s-1.543,13.394-9.141,17.269c0,0,0,0-0.001,0l-29.01,14.789c-4.618,2.355-9.513,4.262-14.547,5.666l-26.201,7.305
	c-2.528,0.704-5.029,1.04-7.412,1.04C283.075,134.123,276.491,130.467,274.318,124.305z M284.592,120.686
	c0.659,1.868,5.097,3.5,10.826,1.903l26.2-7.305c4.336-1.209,8.551-2.85,12.525-4.877l29.011-14.789h-0.001
	c3.087-1.574,3.887-3.579,3.814-3.949c-0.13-0.248-1.243-0.917-3.253-0.917c-0.639,0-1.37,0.068-2.19,0.239l-31.876,6.652
	c-4.371,0.913-8.682,2.275-12.816,4.05l-24.998,10.726C286.37,114.763,283.935,118.813,284.592,120.686z"/>
<g>
</g>
<g>
</g>
<g>
</g>
<g>
</g>
<g>
</g>
<g>
</g>
<g>
</g>
<g>
</g>
<g>
</g>
<g>
</g>
<g>
</g>
<g>
</g>
<g>
</g>
<g>
</g>
<g>
</g>
</svg>
